<svg width="45" height="51" viewBox="0 0 45 51" fill="none" xmlns="http://www.w3.org/2000/svg">
<path fill-rule="evenodd" clip-rule="evenodd" d="M21.4098 29.2884C21.4023 29.2704 21.3946 29.2525 21.3866 29.2346L19.363 24.657L20.6442 21.7589C20.9616 21.0409 21.6396 20.6217 22.3448 20.6291C23.05 20.6217 23.7281 21.041 24.0454 21.7589L25.7355 25.5821L27.4423 21.7215C27.8751 20.7422 28.9788 20.3187 29.9075 20.7755C30.8361 21.2322 31.238 22.3963 30.8052 23.3756L27.4575 30.9482C27.2776 31.355 26.982 31.6659 26.6313 31.8576C26.5874 31.8841 26.5421 31.9088 26.4955 31.9317C25.5668 32.3885 24.4631 31.965 24.0302 30.9857L22.3448 27.1732L21.4098 29.2884Z" fill="#C4A27F"/>
<path fill-rule="evenodd" clip-rule="evenodd" d="M17.1093 21.7591C16.6765 20.7799 15.5728 20.3564 14.6442 20.8132C13.7156 21.27 13.3137 22.4342 13.7465 23.4134L17.0939 30.9862C17.5267 31.9654 18.6304 32.389 19.559 31.9322C20.4876 31.4754 20.8895 30.3111 20.4567 29.3319L17.1093 21.7591Z" fill="#C4A27F"/>
<path d="M43.4315 50.8941V22.969C43.4315 11.2852 33.9599 1.81354 22.276 1.81354V1.81354C10.5922 1.81354 1.12061 11.2852 1.12061 22.969V50.8941" stroke="#C4A27F" stroke-width="2.04502"/>
<line x1="1.96674" y1="49.8717" x2="42.5852" y2="49.8717" stroke="#C4A27F" stroke-width="2.04502"/>
<path fill-rule="evenodd" clip-rule="evenodd" d="M23.0119 7.77762C22.5915 7.40638 21.9605 7.40638 21.5402 7.77762L17.9603 10.9395C17.7297 11.1432 17.4251 11.2421 17.1188 11.2129L12.3641 10.7591C11.8059 10.7058 11.2953 11.0767 11.1735 11.6241L10.1358 16.2864C10.069 16.5867 9.88069 16.8458 9.61577 17.0022L5.50238 19.4298C5.01942 19.7148 4.82442 20.315 5.04761 20.8294L6.94849 25.2112C7.07092 25.4934 7.07092 25.8137 6.94849 26.0959L5.04761 30.4777C4.82442 30.9922 5.01942 31.5923 5.50238 31.8774L9.61577 34.305C9.88069 34.4613 10.069 34.7205 10.1358 35.0208L11.1735 39.683C11.2953 40.2304 11.8059 40.6013 12.3641 40.548L17.1188 40.0942C17.4251 40.065 17.7297 40.164 17.9603 40.3676L21.5402 43.5295C21.9605 43.9008 22.5915 43.9008 23.0119 43.5295L26.5918 40.3676C26.8223 40.164 27.127 40.065 27.4332 40.0942L32.1879 40.548C32.7462 40.6013 33.2567 40.2304 33.3786 39.683L34.4163 35.0208C34.4831 34.7205 34.6714 34.4613 34.9363 34.305L39.0497 31.8774C39.5326 31.5923 39.7276 30.9922 39.5045 30.4777L37.6036 26.0959C37.4811 25.8137 37.4811 25.4934 37.6036 25.2112L39.5045 20.8294C39.7276 20.315 39.5326 19.7148 39.0497 19.4298L34.9363 17.0022C34.6714 16.8458 34.4831 16.5867 34.4163 16.2864L33.3786 11.6241C33.2567 11.0767 32.7462 10.7058 32.1879 10.7591L27.4332 11.2129C27.127 11.2421 26.8223 11.1432 26.5918 10.9395L23.0119 7.77762ZM22.0908 38.6217C29.3552 38.6217 35.2441 32.7327 35.2441 25.4683C35.2441 18.2039 29.3552 12.3149 22.0908 12.3149C14.8264 12.3149 8.93741 18.2039 8.93741 25.4683C8.93741 32.7327 14.8264 38.6217 22.0908 38.6217Z" fill="#C4A27F"/>
<path d="M14.4401 39.6355V49.7432H30.1118V39.6355" stroke="#C4A27F" stroke-width="2.04502"/>
</svg>
