<svg width="44" height="50" viewBox="0 0 44 50" fill="none" xmlns="http://www.w3.org/2000/svg">
<path d="M42.5 49.6656V22.2756C42.5 10.8157 33.2099 1.52557 21.75 1.52557V1.52557C10.2901 1.52557 1 10.8157 1 22.2756V49.6656" stroke="#C4A27F" stroke-width="2"/>
<line x1="1.82996" y1="48.6657" x2="41.67" y2="48.6657" stroke="#C4A27F" stroke-width="2"/>
<path d="M21.75 40.5627L21.2134 39.9684C21.1061 39.8499 18.5535 37.0125 15.959 33.1671C12.4323 27.9399 10.6439 23.5775 10.6439 20.2015C10.6439 14.0772 15.6261 9.09509 21.75 9.09509C27.8739 9.09509 32.8561 14.0772 32.8561 20.2012C32.8561 23.5771 31.068 27.9395 27.541 33.1671C24.9464 37.0128 22.3939 39.8499 22.2866 39.9684L21.75 40.5627ZM21.75 10.5416C16.4234 10.5416 12.0901 14.8749 12.0901 20.2015C12.0901 26.6242 19.647 35.9204 21.75 38.3828C23.8527 35.9194 31.4099 26.6199 31.4099 20.2015C31.4099 14.8749 27.0766 10.5416 21.75 10.5416ZM21.75 25.7451C18.693 25.7451 16.2061 23.2582 16.2061 20.2015C16.2061 17.1448 18.693 14.6572 21.75 14.6572C24.807 14.6572 27.2939 17.1445 27.2939 20.2012C27.2939 23.2578 24.807 25.7451 21.75 25.7451Z" fill="#C4A27F"/>
<path d="M17.6523 20.2015C17.6523 22.4605 19.4903 24.2989 21.75 24.2989C24.0097 24.2989 25.8477 22.4605 25.8477 20.2015M21.75 40.5627L21.2134 39.9684C21.1061 39.8499 18.5535 37.0125 15.959 33.1671C12.4323 27.9399 10.6439 23.5775 10.6439 20.2015C10.6439 14.0772 15.6261 9.09509 21.75 9.09509C27.8739 9.09509 32.8561 14.0772 32.8561 20.2012C32.8561 23.5771 31.068 27.9395 27.541 33.1671C24.9464 37.0128 22.3939 39.8499 22.2866 39.9684L21.75 40.5627ZM21.75 10.5416C16.4234 10.5416 12.0901 14.8749 12.0901 20.2015C12.0901 26.6242 19.647 35.9204 21.75 38.3828C23.8527 35.9194 31.4099 26.6199 31.4099 20.2015C31.4099 14.8749 27.0766 10.5416 21.75 10.5416ZM21.75 25.7451C18.693 25.7451 16.2061 23.2582 16.2061 20.2015C16.2061 17.1448 18.693 14.6572 21.75 14.6572C24.807 14.6572 27.2939 17.1445 27.2939 20.2012C27.2939 23.2578 24.807 25.7451 21.75 25.7451Z" stroke="#C4A27F"/>
<path d="M0.625 41.8752H42.5" stroke="#C4A27F" stroke-width="2"/>
</svg>
